<svg xmlns="http://www.w3.org/2000/svg" xmlns:xlink="http://www.w3.org/1999/xlink" viewBox="0 0 389.25383 116.22047"><defs><style>.a{isolation:isolate;}.b,.c,.e{fill:none;stroke-miterlimit:10;stroke-width:21.25984px;}.b{stroke:#003c8f;}.c{mix-blend-mode:multiply;stroke:url(#a);}.d{fill:#003c8f;}.e{stroke:#1565c0;}.f{fill:#1565c0;}</style><linearGradient id="a" x1="95.68355" y1="76.54458" x2="63.78047" y2="21.28684" gradientUnits="userSpaceOnUse"><stop offset="0" stop-color="#231f20" stop-opacity="0"/><stop offset="1"/></linearGradient></defs><title>logo_horizontal</title><g class="a"><line class="b" x1="106.30016" y1="94.93309" x2="63.78047" y2="21.28684"/><line class="c" x1="95.68355" y1="76.54458" x2="63.78047" y2="21.28684"/><circle class="d" cx="106.30047" cy="94.96063" r="21.25984"/><line class="e" x1="21.26016" y1="94.93309" x2="63.77984" y2="21.28684"/><circle class="f" cx="63.78047" cy="21.25984" r="21.25984"/><circle class="f" cx="21.25984" cy="94.96063" r="21.25984"/><path d="M180.85149,63.79421h11.33594L223.90715,137.426H208.93156l-6.86426-16.84766H170.13957L163.48332,137.426H148.81926ZM197.49113,109.346,186.1552,79.39382,174.61125,109.346Z" transform="translate(0 -42.46553)"/><path d="M230.38469,63.79421h13.10449V125.5696h31.30371V137.426h-44.4082Z" transform="translate(0 -42.46553)"/><path d="M281.88567,63.79421h24.752a49.67209,49.67209,0,0,1,10.24414,1.04,25.27458,25.27458,0,0,1,8.68457,3.48389,17.906,17.906,0,0,1,5.97949,6.55176A21.23614,21.23614,0,0,1,333.78215,85.114q0,6.969-2.39258,11.23193a17.12836,17.12836,0,0,1-6.44727,6.60449,26.958,26.958,0,0,1-9.41211,3.17188,72.67918,72.67918,0,0,1-11.18066.832h-9.35937V137.426H281.88567Zm21.00781,31.92773q2.80811,0,5.82422-.208a17.87074,17.87074,0,0,0,5.56445-1.248,9.86578,9.86578,0,0,0,4.16016-3.11963,9.31768,9.31768,0,0,0,1.61133-5.82422,9.18318,9.18318,0,0,0-1.45605-5.46,9.65865,9.65865,0,0,0-3.74414-3.12012,15.79189,15.79189,0,0,0-5.0957-1.40381,49.01924,49.01924,0,0,0-5.4082-.312h-9.35937v20.6958Z" transform="translate(0 -42.46553)"/><path d="M379.26945,79.60183A12.10063,12.10063,0,0,0,373.706,75.1819a19.44012,19.44012,0,0,0-7.332-1.40381,18.59622,18.59622,0,0,0-4.41992.52,12.03483,12.03483,0,0,0-3.84863,1.66406,8.704,8.704,0,0,0-2.75586,2.96387,8.5562,8.5562,0,0,0-1.04,4.31592,6.74444,6.74444,0,0,0,2.60059,5.72021,25.47575,25.47575,0,0,0,6.44727,3.43164q3.84668,1.45825,8.4248,2.80811a34.31759,34.31759,0,0,1,8.42383,3.74414,20.865,20.865,0,0,1,6.44824,6.34424q2.59717,3.95361,2.59961,10.50391a23.09232,23.09232,0,0,1-2.18457,10.34766,21.05745,21.05745,0,0,1-5.876,7.332,25.37047,25.37047,0,0,1-8.5791,4.36816,35.92815,35.92815,0,0,1-10.29687,1.45605,38.65661,38.65661,0,0,1-13.208-2.28809,25.42993,25.42993,0,0,1-10.91992-7.69629l9.87988-9.56738a16.51762,16.51762,0,0,0,6.293,5.668,17.67361,17.67361,0,0,0,8.26758,2.02734,17.33625,17.33625,0,0,0,4.57617-.624,14.16742,14.16742,0,0,0,4.16016-1.87207,9.751,9.751,0,0,0,3.01563-3.17187,8.48919,8.48919,0,0,0,1.14355-4.41992,7.69385,7.69385,0,0,0-2.59961-6.23926,22.995,22.995,0,0,0-6.44824-3.69238q-3.84814-1.50586-8.42383-2.86035a35.39745,35.39745,0,0,1-8.42383-3.69189,20.46607,20.46607,0,0,1-6.44824-6.23975Q340.58147,90.73,340.582,84.178a19.84506,19.84506,0,0,1,2.33984-9.87988,21.40366,21.40366,0,0,1,6.13574-6.916,26.80268,26.80268,0,0,1,8.68457-4.10791,37.3086,37.3086,0,0,1,9.9834-1.35205,36.41323,36.41323,0,0,1,11.28418,1.76807,26.17127,26.17127,0,0,1,9.82813,5.82373Z" transform="translate(0 -42.46553)"/></g></svg>