<svg xmlns="http://www.w3.org/2000/svg" xmlns:xlink="http://www.w3.org/1999/xlink" viewBox="0 0 113.38471 160.60062"><defs><style>.a{fill:url(#a);}.b{fill:none;}.c{isolation:isolate;}.d{clip-path:url(#b);}.e{fill:#21428a;}.f{clip-path:url(#e);}.g{opacity:0.5;}.h{clip-path:url(#f);}.i{mix-blend-mode:multiply;}.j{clip-path:url(#h);}.k{mask:url(#i);}.l{fill:url(#j);}.m{fill:#2b66b1;}.n{fill:#212121;}</style><radialGradient id="a" cx="-28.3477" cy="-40.03954" r="1" gradientTransform="matrix(22.67717, 0, 0, -22.67717, 699.5378, -892.74225)" gradientUnits="userSpaceOnUse"><stop offset="0" stop-color="#fff"/><stop offset="0.63041" stop-color="#fff"/><stop offset="0.73722" stop-color="#a6a6a6"/><stop offset="0.83145" stop-color="#5f5f5f"/><stop offset="0.90921" stop-color="#2c2c2c"/><stop offset="0.96762" stop-color="#0c0c0c"/><stop offset="1"/></radialGradient><clipPath id="b" transform="translate(0 7.4365)"><rect class="b" x="-28.3477" y="-32.53949" width="170.08" height="170.08"/></clipPath><clipPath id="e" transform="translate(0 7.4365)"><rect class="b" x="70.02022" y="9.86217" width="14.80867" height="85.27567" transform="translate(-15.7586 44.27121) rotate(-29.09382)"/></clipPath><clipPath id="f" transform="translate(0 7.4365)"><rect class="b" x="34.0151" y="-7.43549" width="45.3542" height="45.3539"/></clipPath><clipPath id="h" transform="translate(0 7.4365)"><path class="b" d="M79.3693,15.2415a22.677,22.677,0,1,1-22.677-22.678,22.67721,22.67721,0,0,1,22.677,22.678"/></clipPath><mask id="i" x="34.0153" y="0" width="45.35401" height="45.35501" maskUnits="userSpaceOnUse"><g transform="translate(0 7.4365)"><rect class="a" x="34.0153" y="-7.4365" width="45.35401" height="45.35501"/></g></mask><radialGradient id="j" cx="-28.3477" cy="-40.03954" r="1" gradientTransform="matrix(22.67717, 0, 0, -22.67717, 699.5378, -885.30575)" gradientUnits="userSpaceOnUse"><stop offset="0" stop-color="#231f20"/><stop offset="0.63041" stop-color="#231f20"/><stop offset="1" stop-color="#231f20"/></radialGradient></defs><title>alps_logo_vertical</title><g class="c"><g class="d"><g class="d"><rect class="e" x="70.02039" y="9.86186" width="14.80823" height="85.27629" transform="translate(-15.75856 51.70716) rotate(-29.0935)"/><g class="d"><path class="e" d="M113.38471,89.75831a15.228,15.228,0,1,1-15.229-15.228,15.22932,15.22932,0,0,1,15.229,15.228" transform="translate(0 7.4365)"/></g><g class="f"><g class="g"><g class="h"><g class="i"><g class="h"><g class="j"><g class="k"><rect class="l" x="34.0153" width="45.35401" height="45.35501"/></g></g></g></g></g></g></g><g class="d"><rect class="m" x="-6.67795" y="45.0959" width="85.27629" height="14.80823" transform="translate(-27.40042 65.83731) rotate(-60.91121)"/><path class="m" d="M30.456,89.75831a15.228,15.228,0,1,1-15.228-15.228,15.2291,15.2291,0,0,1,15.228,15.228" transform="translate(0 7.4365)"/><path class="m" d="M71.9199,15.24131A15.228,15.228,0,1,1,56.6919.01332a15.22761,15.22761,0,0,1,15.228,15.228" transform="translate(0 7.4365)"/></g></g></g><path class="n" d="M14.24377,119.42771h5.99411l14.31226,32.89964H26.37171l-2.83481-6.9706H10.75847l-2.74167,6.9706H.0239Zm2.78749,9.57255-3.99607,10.22267h8.03947Z" transform="translate(0 7.4365)"/><path class="n" d="M38.12783,119.42771H45.3771v26.20847H58.80677v6.69117H38.12783Z" transform="translate(0 7.4365)"/><path class="n" d="M62.80284,119.42771H75.02467a24.1898,24.1898,0,0,1,4.8321.46458,11.00973,11.00973,0,0,1,3.97354,1.60331,8.1144,8.1144,0,0,1,2.6951,3.06691,10.50874,10.50874,0,0,1,.999,4.85613,11.21334,11.21334,0,0,1-.92916,4.83285,7.93847,7.93847,0,0,1-2.55614,3.11311,10.36453,10.36453,0,0,1-3.85636,1.64951,22.61446,22.61446,0,0,1-4.83285.48749h-5.2978v12.82575H62.80284Zm7.24927,13.94082H74.885a9.33827,9.33827,0,0,0,1.88161-.18591,4.995,4.995,0,0,0,1.627-.62758,3.34373,3.34373,0,0,0,1.16127-1.20821,3.8167,3.8167,0,0,0,.44167-1.92818,3.26414,3.26414,0,0,0-.58063-2.02132,3.87019,3.87019,0,0,0-1.48726-1.1853,6.36359,6.36359,0,0,0-2.02132-.53406,20.793,20.793,0,0,0-2.13775-.11643h-3.7174Z" transform="translate(0 7.4365)"/><path class="n" d="M108.34232,127.4668a5.16936,5.16936,0,0,0-2.39314-1.64951,8.58607,8.58607,0,0,0-2.85809-.53444,7.502,7.502,0,0,0-1.62622.18591,6.262,6.262,0,0,0-1.5804.58063,3.44544,3.44544,0,0,0-1.20784,1.04559,2.6459,2.6459,0,0,0-.465,1.58,2.61829,2.61829,0,0,0,1.11545,2.27709,10.55025,10.55025,0,0,0,2.81152,1.34755q1.6957.55772,3.64754,1.11507a15.07187,15.07187,0,0,1,3.6483,1.58,8.63577,8.63577,0,0,1,2.81077,2.74167,8.35376,8.35376,0,0,1,1.11545,4.6,10.577,10.577,0,0,1-1.0223,4.78628,9.69864,9.69864,0,0,1-2.765,3.39216,11.74592,11.74592,0,0,1-4.04265,1.998,18.5245,18.5245,0,0,1-10.80367-.32524,14.89757,14.89757,0,0,1-5.11227-3.1593l5.15809-5.66962a7.5127,7.5127,0,0,0,2.81152,2.3,7.905,7.905,0,0,0,5.2978.60467,5.84866,5.84866,0,0,0,1.62622-.6272,3.521,3.521,0,0,0,1.162-1.06887,2.669,2.669,0,0,0,.44092-1.53383,2.78412,2.78412,0,0,0-1.138-2.34657,10.54056,10.54056,0,0,0-2.85809-1.464q-1.71936-.60279-3.7174-1.20784a16.6761,16.6761,0,0,1-3.7174-1.62622,8.94325,8.94325,0,0,1-2.85809-2.6951,7.70715,7.70715,0,0,1-1.13873-4.41446,9.88268,9.88268,0,0,1,1.04559-4.64694,10.09842,10.09842,0,0,1,2.78824-3.346,12.13623,12.13623,0,0,1,4.01936-2.02132,16.46951,16.46951,0,0,1,4.69389-.67377,18.47188,18.47188,0,0,1,5.39019.78983,12.452,12.452,0,0,1,4.69313,2.6489Z" transform="translate(0 7.4365)"/></g></svg>