<svg xmlns="http://www.w3.org/2000/svg" xmlns:xlink="http://www.w3.org/1999/xlink" viewBox="0 0 127.56067 178.53144"><defs><style>.a{isolation:isolate;}.b,.c,.e{fill:none;stroke-miterlimit:10;stroke-width:21.25984px;}.b{stroke:#003c8f;}.c{mix-blend-mode:multiply;stroke:url(#a);}.d{fill:#003c8f;}.e{stroke:#1565c0;}.f{fill:#1565c0;}</style><linearGradient id="a" x1="95.68355" y1="76.54458" x2="63.78047" y2="21.28684" gradientUnits="userSpaceOnUse"><stop offset="0" stop-color="#231f20" stop-opacity="0"/><stop offset="1"/></linearGradient></defs><title>logo_vertical</title><g class="a"><line class="b" x1="106.30016" y1="94.93309" x2="63.78047" y2="21.28684"/><line class="c" x1="95.68355" y1="76.54458" x2="63.78047" y2="21.28684"/><circle class="d" cx="106.30047" cy="94.96063" r="21.25984"/><line class="e" x1="21.26016" y1="94.93309" x2="63.77984" y2="21.28684"/><circle class="f" cx="63.78047" cy="21.25984" r="21.25984"/><circle class="f" cx="21.25984" cy="94.96063" r="21.25984"/><path d="M16.99469,138.47353h6.01418l16.82861,39.06471H31.89232l-3.64177-8.93837h-16.939l-3.53141,8.93837H.00028Zm8.828,24.16707-6.01418-15.89084L13.684,162.6406Z"/><path d="M43.27408,138.47353h6.95247V171.2479h16.6079v6.29033H43.27408Z"/><path d="M70.59746,138.47353H83.72938a26.35308,26.35308,0,0,1,5.43494.55178,13.41914,13.41914,0,0,1,4.60752,1.84809,9.50352,9.50352,0,0,1,3.17237,3.47649,11.26524,11.26524,0,0,1,1.18646,5.43494,12.14065,12.14065,0,0,1-1.26936,5.95874,9.0873,9.0873,0,0,1-3.42054,3.504,14.30231,14.30231,0,0,1-4.99351,1.68281,38.55929,38.55929,0,0,1-5.9318.44143H77.54993v16.16647H70.59746ZM81.743,155.4125q1.48982,0,3.09-.11036a9.46658,9.46658,0,0,0,2.95217-.66214,5.23263,5.23263,0,0,0,2.20713-1.65535,4.9429,4.9429,0,0,0,.85488-3.09,4.87089,4.87089,0,0,0-.7725-2.89621,5.12558,5.12558,0,0,0-1.98642-1.65587,8.38462,8.38462,0,0,0-2.70348-.74452,26.00467,26.00467,0,0,0-2.86927-.16528H77.54993V155.4125Z"/><path d="M122.26355,146.86011a6.42153,6.42153,0,0,0-2.95165-2.34495,10.30854,10.30854,0,0,0-3.88994-.74452,9.87935,9.87935,0,0,0-2.34495.27563,6.39071,6.39071,0,0,0-2.04186.88285,4.62021,4.62021,0,0,0-1.4621,1.57245,4.53842,4.53842,0,0,0-.55178,2.28951,3.57869,3.57869,0,0,0,1.37972,3.03507,13.50773,13.50773,0,0,0,3.42054,1.82063q2.04082.77405,4.4697,1.49007a18.1875,18.1875,0,0,1,4.46919,1.98642,11.06887,11.06887,0,0,1,3.42106,3.36562,10.01065,10.01065,0,0,1,1.3792,5.57275,12.25142,12.25142,0,0,1-1.159,5.48986,11.17184,11.17184,0,0,1-3.11745,3.88994,13.46008,13.46008,0,0,1-4.55156,2.31749,19.06135,19.06135,0,0,1-5.46291.7725,20.50892,20.50892,0,0,1-7.00739-1.21392,13.49162,13.49162,0,0,1-5.79347-4.0832l5.24168-5.07589a8.76328,8.76328,0,0,0,3.33868,3.00709,9.37657,9.37657,0,0,0,4.38629,1.07559,9.19759,9.19759,0,0,0,2.42785-.33107,7.5164,7.5164,0,0,0,2.20713-.99321,5.17328,5.17328,0,0,0,1.59991-1.68281,4.50386,4.50386,0,0,0,.6067-2.34495,4.0819,4.0819,0,0,0-1.3792-3.31018,12.1998,12.1998,0,0,0-3.42106-1.959q-2.0416-.79892-4.46919-1.51753a18.78961,18.78961,0,0,1-4.46919-1.95844,10.86455,10.86455,0,0,1-3.42106-3.3107,9.86112,9.86112,0,0,1-1.3792-5.54529,10.52862,10.52862,0,0,1,1.24138-5.24168,11.35552,11.35552,0,0,1,3.25526-3.66923,14.21945,14.21945,0,0,1,4.60752-2.17916,19.794,19.794,0,0,1,5.2966-.71758,19.31127,19.31127,0,0,1,5.98672.93829,13.88429,13.88429,0,0,1,5.21422,3.08947Z"/></g></svg>